<?xml version="1.0" encoding="UTF-8"?><svg xmlns="http://www.w3.org/2000/svg" viewBox="0 0 1600.758 253.104"><defs><style>.cls-1{fill:#001927;}.cls-2{fill:#ffb000;}</style></defs><g><path class="cls-1" d="m979.896,188.441v-35.377l69.857-63.164c4.387-4.214,7.933-8.508,10.632-12.888,2.696-4.38,4.047-9.261,4.047-14.653,0-6.399-2.024-11.578-6.071-15.537-4.051-3.959-9.454-5.94-16.201-5.94-7.087,0-12.868,2.491-17.337,7.465-4.472,4.978-7.129,11.517-7.971,19.615l-40.753-5.569c1.016-9.111,3.503-17.225,7.469-24.346,3.962-7.118,8.983-13.181,15.058-18.194,6.075-5.013,13.034-8.836,20.882-11.47,7.844-2.634,16.155-3.951,24.93-3.951,8.265,0,16.282,1.101,24.045,3.29,7.759,2.198,14.68,5.569,20.755,10.126,6.075,4.553,10.922,10.292,14.552,17.209,3.626,6.921,5.442,15.02,5.442,24.3,0,6.415-.846,12.193-2.53,17.337-1.688,5.148-4.009,9.914-6.959,14.301-2.954,4.387-6.33,8.477-10.126,12.274s-7.72,7.554-11.768,11.262l-41.509,36.956h73.148v36.952h-129.592Z"/><path class="cls-1" d="m1278.056,98.336c0,12.656-1.267,24.721-3.796,36.195-2.534,11.474-6.581,21.558-12.15,30.244-5.569,8.694-12.783,15.61-21.639,20.755-8.86,5.148-19.619,7.72-32.271,7.72s-23.458-2.572-32.399-7.72c-8.945-5.144-16.244-12.061-21.894-20.755-5.654-8.686-9.744-18.77-12.274-30.244-2.534-11.474-3.796-23.539-3.796-36.195s1.263-24.679,3.796-36.068c2.53-11.389,6.62-21.342,12.274-29.865,5.65-8.52,12.95-15.313,21.894-20.376,8.941-5.059,19.743-7.593,32.399-7.593s23.412,2.534,32.271,7.593c8.856,5.063,16.07,11.857,21.639,20.376,5.569,8.524,9.617,18.476,12.15,29.865,2.53,11.389,3.796,23.412,3.796,36.068Zm-43.537,0c0-5.569-.34-11.725-1.012-18.476-.676-6.747-1.943-13.034-3.796-18.855-1.858-5.824-4.515-10.713-7.971-14.68-3.46-3.966-7.975-5.951-13.54-5.951s-10.126,1.985-13.668,5.951c-3.545,3.966-6.287,8.856-8.226,14.68-1.943,5.82-3.252,12.108-3.924,18.855-.676,6.751-1.012,12.907-1.012,18.476,0,5.739.336,12.023,1.012,18.858.672,6.832,1.981,13.158,3.924,18.982,1.939,5.82,4.681,10.717,8.226,14.68,3.542,3.966,8.099,5.948,13.668,5.948s10.08-1.981,13.54-5.948c3.457-3.962,6.114-8.86,7.971-14.68,1.854-5.824,3.121-12.15,3.796-18.982.672-6.836,1.012-13.119,1.012-18.858Z"/><path class="cls-1" d="m1306.905,188.441v-35.377l69.857-63.164c4.387-4.214,7.933-8.508,10.632-12.888,2.696-4.38,4.047-9.261,4.047-14.653,0-6.399-2.024-11.578-6.071-15.537-4.051-3.959-9.454-5.94-16.201-5.94-7.087,0-12.868,2.491-17.337,7.465-4.472,4.978-7.129,11.517-7.971,19.615l-40.753-5.569c1.016-9.111,3.503-17.225,7.469-24.346,3.962-7.118,8.983-13.181,15.058-18.194,6.075-5.013,13.034-8.836,20.882-11.47,7.844-2.634,16.155-3.951,24.93-3.951,8.265,0,16.282,1.101,24.045,3.29,7.759,2.198,14.68,5.569,20.755,10.126,6.075,4.553,10.922,10.292,14.552,17.209,3.626,6.921,5.442,15.02,5.442,24.3,0,6.415-.846,12.193-2.53,17.337-1.688,5.148-4.009,9.914-6.959,14.301-2.954,4.387-6.33,8.477-10.126,12.274s-7.72,7.554-11.768,11.262l-41.509,36.956h73.148v36.952h-129.592Z"/><path class="cls-1" d="m1600.758,136.381c0,9.775-1.985,18.244-5.948,25.401-3.966,7.164-9.153,13.058-15.564,17.696-6.415,4.634-13.629,8.087-21.639,10.358-8.018,2.275-16.159,3.414-24.428,3.414-8.099,0-15.989-.927-23.663-2.785-7.682-1.858-14.68-4.681-21.01-8.477-6.326-3.796-11.857-8.69-16.576-14.68-4.727-5.99-8.273-13.201-10.632-21.643l39.486-10.377c1.684,5.909,5.144,11.1,10.377,15.568,5.225,4.472,11.895,6.708,19.994,6.708,3.039,0,6.114-.421,9.238-1.267,3.121-.842,5.905-2.151,8.354-3.924,2.445-1.773,4.468-4.09,6.075-6.959,1.599-2.87,2.402-6.411,2.402-10.632,0-4.553-1.054-8.35-3.163-11.389-2.113-3.036-4.897-5.442-8.354-7.214-3.46-1.769-7.38-3.036-11.768-3.796-4.391-.757-8.775-1.135-13.162-1.135h-11.389v-30.881h12.401c4.051,0,7.929-.297,11.644-.888,3.708-.595,7.044-1.699,9.999-3.31,2.947-1.614,5.314-3.777,7.087-6.496,1.769-2.715,2.657-6.284,2.657-10.698,0-6.45-2.279-11.374-6.836-14.769-4.553-3.395-9.786-5.094-15.692-5.094-6.075,0-11.351,1.815-15.819,5.442-4.472,3.63-7.384,8.477-8.732,14.552l-39.486-9.111c2.194-7.593,5.484-14.212,9.871-19.87,4.387-5.65,9.574-10.377,15.568-14.174,5.986-3.796,12.529-6.662,19.615-8.605,7.087-1.939,14.34-2.912,21.767-2.912,7.929,0,15.649,1.016,23.157,3.043,7.508,2.028,14.216,5.156,20.125,9.381,5.901,4.221,10.667,9.505,14.297,15.842,3.626,6.334,5.442,13.815,5.442,22.431,0,9.976-2.827,18.383-8.477,25.223-5.654,6.844-12.868,11.451-21.639,13.815v.757c5.059,1.182,9.698,3.078,13.919,5.689,4.217,2.615,7.848,5.731,10.883,9.354,3.039,3.623,5.399,7.666,7.087,12.131,1.684,4.465,2.53,9.226,2.53,14.282Z"/><path class="cls-2" d="m858.585,166.726c-5.074,2.012-10.589,3.377-16.392,3.964-27.239,2.757-50.817-16.526-50.959-43.903-.127-24.665,19.829-44.699,44.464-44.699,8.234,0,16.032,1.556,22.994,4.333,7.507,2.994,16.088,1.05,21.802-4.665l34.426-34.426c5.85-5.85,5.162-15.451-1.357-20.546C891.508,9.545,863.588-.539,833.296.022c-68.769,1.275-124.405,58.23-124.15,127.01.259,69.672,56.818,126.072,126.551,126.072,29.412,0,56.48-10.033,77.969-26.864,6.472-5.069,7.063-14.656,1.25-20.469l-34.425-34.425c-5.744-5.744-14.355-7.615-21.907-4.62Z"/><path class="cls-2" d="m382.022,166.726c-5.074,2.012-10.589,3.377-16.392,3.964-27.239,2.757-50.817-16.526-50.959-43.903-.127-24.665,19.829-44.699,44.464-44.699,8.234,0,16.032,1.556,22.994,4.333,7.507,2.994,16.088,1.05,21.802-4.665l34.426-34.426c5.85-5.85,5.162-15.451-1.357-20.546C414.944,9.545,387.025-.539,356.733.022c-68.769,1.275-124.405,58.23-124.15,127.01.259,69.672,56.818,126.072,126.551,126.072,29.412,0,56.48-10.033,77.969-26.864,6.472-5.069,7.063-14.656,1.25-20.469l-34.425-34.425c-5.744-5.744-14.355-7.615-21.907-4.62Z"/><path class="cls-2" d="m579.174,3.42h-88.962c-7.541.018-13.648,6.135-13.648,13.68v218.901c0,7.556,6.125,13.681,13.681,13.681v.002h58.146c7.556,0,13.681-6.125,13.681-13.681v-20.522c0-3.778,3.063-6.841,6.841-6.841h10.261c56.67,0,102.61-45.94,102.61-102.61S635.844,3.42,579.174,3.42Z"/><path class="cls-2" d="m200.493,6.773L0,148.963c0,56.393,44.859,103.399,101.248,104.131,57.294.743,103.972-45.478,103.972-102.601V17.102c0-4.128-1.836-7.82-4.727-10.329Z"/><path class="cls-2" d="m13.681,3.42C6.125,3.42,0,9.546,0,17.102v131.862L102.61,3.42H13.681Z"/></g></svg>